<?xml version="1.0" encoding="utf-8"?>
<!-- Generator: Adobe Illustrator 28.2.0, SVG Export Plug-In . SVG Version: 6.00 Build 0)  -->
<svg version="1.1" id="Layer_1" xmlns="http://www.w3.org/2000/svg" xmlns:xlink="http://www.w3.org/1999/xlink" x="0px" y="0px"
	 viewBox="0 0 2000 1014.2" style="enable-background:new 0 0 2000 1014.2;" xml:space="preserve">
<g>
	<g>
		<path d="M1192.8,481.6c43.6,2.2,69.4,8.9,83.3,19.9c11.9,11.1,17.9,33.2,17.9,68.7c0,42.1-7.9,70.9-21.8,82
			c-13.9,13.3-47.6,17.7-97.2,17.7c-45.6,0-75.4-6.6-89.3-17.7c-13.9-13.3-21.8-37.7-21.8-75.3v-11.1h53.6v6.6
			c0,22.2,4,35.4,9.9,42.1c7.9,4.4,25.8,6.6,57.5,6.6c23.8,0,39.7-2.2,47.6-8.9c6-6.6,9.9-19.9,9.9-39.9c0-15.5-2-26.6-7.9-31
			c-6-4.4-15.9-8.9-33.7-8.9l-29.8-2.2c-45.6-2.2-73.4-11.1-87.3-22.2c-11.9-11.1-19.8-35.4-19.8-70.9c0-37.7,7.9-62,21.8-75.3
			c15.9-13.3,45.6-17.7,91.3-17.7c43.6,0,71.4,6.6,87.3,17.7c15.9,11.1,21.8,33.2,21.8,66.5v13.3h-53.6c0-2.2,0-4.4,0-6.6
			c-2-17.7-4-28.8-9.9-33.2c-6-4.4-19.8-6.6-41.7-6.6c-25.8,0-41.7,2.2-49.6,8.9c-7.9,4.4-11.9,15.5-11.9,33.2
			c0,19.9,4,33.2,9.9,35.4C1135.3,475,1155.1,479.4,1192.8,481.6z"/>
		<g>
			<path d="M134.2,620.8c17.8,0,25.7-7,25.7-27.8v-16.2c0-20.9,0-25.5,0-69.6c0-51,0-46.4,0-69.6v-16.2
				c0-13.9-15.8-27.8-27.7-27.8c-17.8,0-17.8,0-25.7,0H0v227.4h106.5H134.2z"/>
			<path d="M755.2,393.4c-17.8,0-25.7,7-25.7,27.8v16.2c0,20.9,0,25.5,0,69.6c0,51.1,0,46.4,0,69.6V593
				c0,13.9,15.8,27.8,27.7,27.8c17.8,0,17.8,0,25.7,0h106.5V393.4H782.9H755.2z"/>
			<path d="M782.9,669.5h-59.3c-25.7,0-39.6-18.6-39.6-55.7v-60.3c0-18.6-5.9-30.2-17.8-27.8v-32.5
				c11.9-4.6,17.8-13.9,17.8-32.5v-60.3c0-37.1,13.8-55.7,39.6-55.7h59.3h106.5v-70.3c0-14.8-7.9-28.6-20.8-36L465.5,5.6
				c-12.9-7.4-28.7-7.4-41.5,0L20.8,238.3C7.9,245.8,0,259.5,0,274.3v70.3h106.5h59.3c25.7,0,39.6,18.6,39.6,55.7v60.3
				c0,18.6,5.9,30.2,17.8,27.8V521c-11.9,4.6-17.8,13.9-17.8,32.5v60.3c0,37.1-13.8,55.7-39.6,55.7h-59.3H0v70.4
				c0,14.8,7.9,28.6,20.8,36L424,1008.6c12.9,7.4,28.7,7.4,41.5,0l403.2-232.8c12.9-7.4,20.8-21.1,20.8-36v-70.4H782.9z M435,392.3
				h-31.8c-20.4,0-29.5,7-29.5,28.1v16.4c0,21.1,0,25.8,0,70.3c0,51.6,0,46.9,0,70.3v16.4c0,14.1,18.2,28.1,31.8,28.1
				c20.4,0,20.4,0,29.5,0v49.2h-68.1c-29.5,0-45.4-18.8-45.4-56.3V554c0-18.8-6.8-30.5-20.4-28.1V493c13.6-4.7,20.4-14.1,20.4-32.8
				v-60.9c0-37.5,15.9-56.3,45.4-56.3H435V392.3z M588.4,525.9c-13.6-2.3-20.4,9.4-20.4,28.1v60.9c0,37.5-15.9,56.3-45.4,56.3h-68.1
				V622c9.1,0,9.1,0,29.5,0c13.6,0,31.8-14.1,31.8-28.1v-16.4c0-23.4,0-18.8,0-70.3c0-44.5,0-49.2,0-70.3v-16.4
				c0-21.1-9.1-28.1-29.5-28.1h-31.8V343h68.1c29.5,0,45.4,18.8,45.4,56.3v60.9c0,18.8,6.8,28.1,20.4,32.8V525.9z"/>
		</g>
		<g>
			<path d="M1391.7,525.9V493c13.6-4.7,20.4-14.1,20.4-32.8v-60.9c0-37.5,15.9-56.3,45.4-56.3h68.1v49.2h-31.8
				c-20.4,0-29.5,7-29.5,28.1v16.4c0,21.1,0,25.8,0,70.3c0,51.6,0,46.9,0,70.3v16.4c0,14.1,18.2,28.1,31.8,28.1
				c20.4,0,20.4,0,29.5,0v49.2h-68.1c-29.5,0-45.4-18.8-45.4-56.3V554C1412.2,535.2,1405.4,523.5,1391.7,525.9z"/>
			<path d="M1658.6,554v60.9c0,37.5-15.9,56.3-45.4,56.3h-68.1V622c9.1,0,9.1,0,29.5,0c13.6,0,31.8-14.1,31.8-28.1
				v-16.4c0-23.4,0-18.8,0-70.3c0-44.5,0-49.2,0-70.3v-16.4c0-21.1-9.1-28.1-29.5-28.1h-31.8V343h68.1c29.5,0,45.4,18.8,45.4,56.3
				v60.9c0,18.8,6.8,28.1,20.4,32.8v32.8C1665.4,523.5,1658.6,535.2,1658.6,554z"/>
		</g>
		<path d="M1840,507.1c0-44.1,0-48.7,0-69.6v-16.2c0-20.9,7.9-27.8,25.7-27.8h27.7H2000v-48.7h-106.5h-59.3
			c-25.7,0-39.6,18.6-39.6,55.7v60.3c0,18.6-5.9,27.8-17.8,32.5v32.5c11.9-2.3,17.8,9.3,17.8,27.8v60.3c0,37.1,13.8,55.7,39.6,55.7
			h59.3H2000v-48.7h-106.5c-7.9,0-7.9,0-25.7,0c-11.9,0-27.7-13.9-27.7-27.8v-16.2C1840,553.5,1840,558.2,1840,507.1z"/>
	</g>
</g>
</svg>
